<?xml version="1.0" standalone="no"?>
<!DOCTYPE svg PUBLIC "-//W3C//DTD SVG 20010904//EN"
 "http://www.w3.org/TR/2001/REC-SVG-20010904/DTD/svg10.dtd">
<svg version="1.0" xmlns="http://www.w3.org/2000/svg"
 width="715.000000pt" height="572.000000pt" viewBox="0 0 715.000000 572.000000"
 preserveAspectRatio="xMidYMid meet">
<metadata>
Created by potrace 1.16, written by Peter Selinger 2001-2019
</metadata>
<g transform="translate(0.000000,572.000000) scale(0.100000,-0.100000)"
fill="#0C1D36" stroke="#F9CC0B">
<path d="M0 2860 l0 -2860 3575 0 3575 0 0 2860 0 2860 -3575 0 -3575 0 0
-2860z m5660 2325 l0 -465 -100 0 -100 0 0 365 0 365 -2590 0 -2590 0 0 -2590
0 -2590 2590 0 2590 0 0 365 0 365 100 0 100 0 0 -465 0 -465 -2790 0 -2790 0
0 2790 0 2790 2790 0 2790 0 0 -465z m-1672 -620 c82 -35 116 -90 116 -190 1
-130 -69 -203 -203 -213 -158 -11 -251 68 -251 216 0 81 43 150 115 183 51 24
170 25 223 4z m2114 5 c85 -24 132 -91 132 -190 0 -134 -69 -208 -202 -218
-89 -6 -147 11 -193 57 -76 76 -79 220 -6 300 51 55 171 78 269 51z m748 -18
c62 -31 91 -77 98 -153 10 -109 -49 -204 -141 -227 -93 -24 -201 -9 -249 35
-52 47 -78 147 -58 223 27 103 96 149 221 150 65 0 85 -4 129 -28z m-4576 -64
c3 -13 69 -270 147 -573 78 -302 145 -553 149 -558 3 -4 67 253 141 570 l134
578 308 3 c302 2 307 2 307 -18 0 -18 -7 -20 -65 -20 l-65 0 0 -755 0 -754 63
-3 c54 -3 62 -5 62 -23 0 -20 -8 -20 -347 -23 l-348 -2 0 25 c0 24 2 25 65 25
l65 0 0 710 c0 391 -4 710 -8 710 -5 0 -85 -330 -179 -732 l-170 -733 -141 -3
-140 -3 -11 33 c-5 18 -96 350 -201 738 -106 388 -194 707 -196 709 -2 2 -4
-318 -4 -712 l0 -717 60 0 c57 0 60 -1 60 -25 l0 -25 -155 0 -155 0 0 25 c0
24 2 25 65 25 l65 0 0 755 0 755 -65 0 c-58 0 -65 2 -65 20 0 20 7 20 309 20
l309 0 6 -22z m3017 -484 c69 -21 119 -57 158 -114 55 -81 61 -133 61 -557 l0
-383 65 0 c58 0 65 -2 65 -20 0 -20 -5 -20 -322 -18 -294 3 -323 5 -326 20 -3
14 6 17 45 20 l48 3 3 390 c3 514 -5 565 -86 565 -47 0 -88 -27 -122 -80 -57
-90 -60 -119 -60 -517 l0 -363 45 0 c38 0 45 -3 45 -20 0 -20 -7 -20 -320 -20
-313 0 -320 0 -320 20 0 18 7 20 60 20 l60 0 0 505 0 505 -60 0 c-53 0 -60 2
-60 20 0 20 7 20 275 20 l275 0 0 -97 1 -98 21 40 c48 91 97 134 181 161 60
18 202 17 268 -2z m-1201 -529 l0 -525 60 0 c53 0 60 -2 60 -20 0 -20 -7 -20
-335 -20 -328 0 -335 0 -335 20 0 18 7 20 60 20 l60 0 0 505 0 505 -65 0 c-58
0 -65 2 -65 20 0 20 7 20 280 20 l280 0 0 -525z m2130 43 c0 -266 -5 -526 -10
-578 -36 -341 -159 -526 -386 -581 -27 -7 -101 -12 -164 -12 -91 0 -127 4
-172 21 -119 43 -182 121 -182 227 0 77 25 129 83 170 39 27 50 30 121 30 94
0 122 -16 159 -88 20 -41 22 -56 16 -112 l-7 -65 -43 0 c-34 0 -47 -5 -55 -19
-11 -22 -13 -61 -4 -86 15 -37 102 -58 146 -34 11 6 30 32 41 57 22 47 22 54
25 780 l3 732 -71 0 c-63 0 -70 2 -70 20 0 20 7 20 285 20 l285 0 0 -482z
m710 -43 l0 -525 66 0 c57 0 65 -2 62 -17 -3 -17 -28 -18 -341 -21 -329 -2
-337 -2 -337 17 0 18 8 20 63 23 l62 3 3 503 2 502 -70 0 c-63 0 -70 2 -70 20
0 20 7 20 280 20 l280 0 0 -525z m-2780 -1777 l0 -112 31 30 c26 25 38 29 84
29 46 0 59 -4 82 -28 28 -27 28 -30 31 -167 l4 -140 24 0 c15 0 24 -6 24 -15
0 -12 -16 -15 -80 -15 -64 0 -80 3 -80 15 0 9 9 15 25 15 l25 0 0 127 c0 116
-2 129 -22 150 -27 29 -86 31 -119 4 -23 -18 -24 -27 -27 -150 l-4 -131 31 0
c21 0 31 -5 31 -15 0 -12 -16 -15 -80 -15 -64 0 -80 3 -80 15 0 9 9 15 25 15
l25 0 0 224 0 224 -26 6 c-49 13 -15 36 64 45 9 1 12 -27 12 -111z m1410 -138
l0 -250 25 0 c16 0 25 -6 25 -15 0 -12 -16 -15 -80 -15 -64 0 -80 3 -80 15 0
9 9 15 25 15 l25 0 0 224 0 224 -25 6 c-33 8 -32 24 3 32 15 3 32 7 37 9 6 2
18 4 28 4 16 1 17 -17 17 -249z m-3598 190 l28 -21 0 21 c0 15 7 20 25 20 24
0 25 -2 25 -70 0 -68 -1 -70 -25 -70 -21 0 -25 5 -25 30 0 57 -63 89 -152 77
-46 -6 -84 -37 -104 -84 -21 -49 -19 -219 4 -262 26 -52 65 -76 121 -76 86 0
131 43 131 124 0 40 0 40 -42 43 -30 2 -43 8 -43 18 0 12 18 16 93 18 87 3 92
2 92 -18 0 -13 -7 -20 -20 -20 -19 0 -20 -7 -20 -100 0 -78 -3 -100 -14 -100
-7 0 -19 14 -26 30 -14 35 -25 38 -40 11 -15 -30 -92 -55 -142 -47 -88 14
-138 65 -164 167 -39 152 19 293 136 328 49 15 129 5 162 -19z m1948 -65 l0
-45 45 0 c33 0 45 -4 45 -15 0 -11 -12 -15 -45 -15 l-45 0 0 -150 0 -150 45 0
c45 0 60 -12 29 -24 -9 -3 -38 -6 -64 -6 -39 0 -52 4 -60 19 -5 11 -10 84 -10
165 l0 146 -25 0 c-16 0 -25 6 -25 15 0 8 8 15 19 15 24 0 39 19 47 58 5 22
12 32 25 32 16 0 19 -8 19 -45z m-1660 -164 c0 -70 5 -142 10 -158 19 -53 87
-69 134 -32 26 20 26 22 26 144 0 119 -1 124 -22 127 -37 5 -32 26 9 33 21 4
46 9 56 12 16 4 17 -8 17 -161 l0 -166 25 0 c46 0 28 -27 -25 -37 -56 -11 -60
-10 -60 26 l0 25 -15 -21 c-36 -51 -158 -51 -187 0 -8 13 -15 74 -18 152 -5
127 -5 129 -29 135 -55 13 -25 34 72 49 4 0 7 -57 7 -128z m566 113 c42 -20
72 -68 80 -128 l7 -46 -128 0 -128 0 6 -41 c3 -26 16 -52 33 -70 23 -24 36
-29 76 -29 38 0 54 6 82 30 41 36 57 24 27 -19 -27 -37 -98 -66 -143 -57 -54
10 -98 43 -118 89 -34 74 -21 185 28 241 40 45 119 58 178 30z m337 2 c15 -8
27 -11 27 -5 0 5 9 9 20 9 18 0 20 -7 20 -56 0 -47 -3 -55 -17 -52 -11 2 -20
15 -23 33 -6 36 -43 57 -88 51 -44 -7 -62 -22 -62 -56 0 -37 23 -55 98 -75 74
-21 102 -50 102 -105 0 -47 -29 -85 -76 -100 -41 -14 -96 -6 -114 15 -16 19
-30 19 -30 0 0 -8 -9 -15 -20 -15 -18 0 -20 7 -20 55 0 47 3 55 19 55 12 0 21
-9 25 -24 10 -40 33 -56 83 -56 52 0 83 21 83 55 0 37 -23 54 -95 74 -42 12
-77 28 -87 41 -20 25 -24 90 -7 121 23 43 110 61 162 35z m340 0 c15 -8 27
-11 27 -5 0 5 9 9 20 9 18 0 20 -7 20 -55 0 -48 -2 -55 -20 -55 -14 0 -20 7
-20 21 0 35 -18 56 -53 63 -67 13 -117 -30 -94 -81 10 -22 29 -32 106 -53 60
-16 91 -49 91 -97 0 -47 -22 -81 -66 -99 -45 -19 -73 -18 -117 5 -29 15 -37
16 -37 5 0 -8 -9 -14 -20 -14 -18 0 -20 7 -20 55 0 48 2 55 20 55 13 0 20 -7
20 -20 0 -36 35 -60 87 -60 52 0 83 20 83 55 0 31 -30 54 -90 70 -28 7 -62 21
-75 29 -32 21 -50 82 -36 118 22 58 113 85 174 54z m1227 -4 c41 -20 80 -88
80 -139 l0 -33 -125 0 c-140 0 -142 -1 -111 -74 19 -46 52 -66 107 -66 39 0
53 5 78 30 31 31 50 26 32 -9 -50 -92 -203 -89 -262 5 -32 53 -34 160 -3 219
39 74 130 105 204 67z m410 -14 l0 -32 29 28 c58 56 158 41 202 -31 27 -43 36
-145 19 -199 -34 -106 -149 -145 -222 -76 l-28 26 0 -82 0 -82 35 0 c24 0 35
-5 35 -15 0 -12 -16 -15 -85 -15 -69 0 -85 3 -85 15 0 9 9 15 25 15 l25 0 -2
213 c-3 211 -3 212 -25 215 -55 8 -11 39 70 51 4 1 7 -13 7 -31z m782 -7 c28
-31 28 -32 28 -166 l0 -135 25 0 c33 0 33 -28 0 -36 -30 -7 -75 18 -75 43 0
12 -6 10 -26 -10 -69 -69 -194 -28 -194 63 0 38 28 78 62 89 18 5 59 13 91 17
l57 6 0 48 c0 41 -4 52 -26 69 -27 22 -52 25 -92 15 -17 -5 -20 -9 -11 -20 19
-23 7 -59 -20 -59 -36 0 -50 29 -31 63 20 34 71 53 134 48 41 -3 55 -9 78 -35z
m728 21 c41 -20 80 -88 80 -139 l0 -33 -125 0 c-136 0 -132 2 -115 -62 15 -52
51 -78 111 -78 39 0 52 5 78 30 34 34 52 24 27 -15 -59 -91 -210 -79 -260 20
-31 59 -29 156 4 213 42 75 126 101 200 64z m260 -11 l0 -29 29 29 c35 35 81
39 111 9 23 -23 24 -33 10 -61 -21 -38 -78 -12 -67 31 7 28 -15 26 -52 -6
l-31 -26 0 -129 0 -129 30 0 c20 0 30 -5 30 -15 0 -12 -16 -15 -85 -15 -69 0
-85 3 -85 15 0 9 9 15 25 15 l25 0 0 145 c0 137 -1 145 -19 145 -19 0 -38 17
-28 26 3 4 65 18 100 23 4 1 7 -12 7 -28z m-740 5 c0 -8 -11 -16 -23 -18 l-24
-3 44 -120 c24 -66 48 -123 52 -127 4 -5 27 49 53 120 l45 127 -23 3 c-13 2
-24 10 -24 18 0 11 15 14 60 14 44 0 60 -4 60 -14 0 -7 -8 -16 -18 -18 -13 -4
-40 -63 -97 -212 -44 -114 -89 -218 -101 -231 -30 -32 -71 -42 -103 -24 -32
18 -40 58 -16 76 26 18 58 -2 52 -33 -7 -37 29 -31 53 9 36 58 35 68 -33 244
-53 138 -68 169 -86 171 -11 2 -21 10 -21 18 0 11 17 14 75 14 58 0 75 -3 75
-14z"/>
<path d="M2703 1608 c-24 -12 -53 -64 -53 -97 0 -20 5 -21 95 -21 l95 0 0 25
c0 77 -71 125 -137 93z"/>
<path d="M4610 1607 c-28 -14 -65 -80 -56 -102 4 -12 26 -15 97 -15 l92 0 -6
42 c-10 72 -67 105 -127 75z"/>
<path d="M5174 1598 c-33 -16 -44 -51 -44 -143 0 -102 19 -133 86 -142 36 -5
46 -1 75 25 34 30 34 30 34 122 0 91 0 92 -33 121 -34 31 -78 37 -118 17z"/>
<path d="M5773 1440 c-71 -29 -47 -130 30 -130 56 0 77 23 77 86 l0 54 -42 -1
c-24 0 -53 -4 -65 -9z"/>
<path d="M6530 1607 c-28 -14 -65 -80 -56 -102 4 -12 25 -15 96 -15 l90 0 0
36 c0 26 -8 43 -29 65 -32 31 -61 36 -101 16z"/>
</g>
</svg>
